<svg width="20" height="20" viewBox="0 0 20 20" fill="none" xmlns="http://www.w3.org/2000/svg">
<g clip-path="url(#clip0_524_4143)">
<path d="M17.4623 7.65686H2.53774C1.90271 7.6555 1.2941 7.40252 0.845217 6.95332C0.39634 6.50412 0.143789 5.89533 0.142883 5.26029V2.53744C0.144242 1.9027 0.396993 1.29435 0.845821 0.845516C1.29465 0.396688 1.903 0.143937 2.53774 0.142578H17.4623C18.097 0.143937 18.7054 0.396688 19.1542 0.845516C19.6031 1.29435 19.8558 1.9027 19.8572 2.53744V5.26029C19.8563 5.89533 19.6037 6.50412 19.1548 6.95332C18.706 7.40252 18.0973 7.6555 17.4623 7.65686ZM2.53774 1.57115C2.28156 1.57145 2.03596 1.67335 1.85481 1.8545C1.67366 2.03565 1.57176 2.28125 1.57145 2.53744V5.26029C1.5713 5.51677 1.673 5.76281 1.8542 5.94433C2.0354 6.12585 2.28126 6.22799 2.53774 6.22829H17.4623C17.7184 6.22799 17.9639 6.12617 18.145 5.94514C18.3262 5.76412 18.4281 5.51866 18.4286 5.26258V2.53744C18.4283 2.28125 18.3264 2.03565 18.1452 1.8545C17.9641 1.67335 17.7185 1.57145 17.4623 1.57115H2.53774Z" fill="#868D95"/>
<path d="M4.67083 5.08608C4.48139 5.08608 4.29971 5.01082 4.16575 4.87687C4.0318 4.74291 3.95654 4.56123 3.95654 4.37179V3.22893C3.95654 3.03949 4.0318 2.85781 4.16575 2.72386C4.29971 2.5899 4.48139 2.51465 4.67083 2.51465C4.86027 2.51465 5.04195 2.5899 5.1759 2.72386C5.30986 2.85781 5.38511 3.03949 5.38511 3.22893V4.37179C5.38511 4.56123 5.30986 4.74291 5.1759 4.87687C5.04195 5.01082 4.86027 5.08608 4.67083 5.08608Z" fill="#868D95"/>
<path d="M15.4669 4.75628C15.6942 4.75628 15.9122 4.66597 16.073 4.50523C16.2337 4.34448 16.324 4.12646 16.324 3.89914C16.324 3.67181 16.2337 3.45379 16.073 3.29304C15.9122 3.1323 15.6942 3.04199 15.4669 3.04199C15.2396 3.04199 15.0215 3.1323 14.8608 3.29304C14.7 3.45379 14.6097 3.67181 14.6097 3.89914C14.6097 4.12646 14.7 4.34448 14.8608 4.50523C15.0215 4.66597 15.2396 4.75628 15.4669 4.75628Z" fill="#868D95"/>
<path d="M12.6097 4.75628C12.837 4.75628 13.0551 4.66597 13.2158 4.50523C13.3765 4.34448 13.4668 4.12646 13.4668 3.89914C13.4668 3.67181 13.3765 3.45379 13.2158 3.29304C13.0551 3.1323 12.837 3.04199 12.6097 3.04199C12.3824 3.04199 12.1644 3.1323 12.0036 3.29304C11.8429 3.45379 11.7526 3.67181 11.7526 3.89914C11.7526 4.12646 11.8429 4.34448 12.0036 4.50523C12.1644 4.66597 12.3824 4.75628 12.6097 4.75628Z" fill="#868D95"/>
<path d="M17.4623 13.7567H2.53774C1.9029 13.7554 1.29447 13.5025 0.84562 13.0536C0.396775 12.6046 0.144091 11.9961 0.142883 11.3613V8.639C0.144242 8.00426 0.396993 7.39591 0.845821 6.94708C1.29465 6.49825 1.903 6.2455 2.53774 6.24414H17.4623C18.097 6.2455 18.7054 6.49825 19.1542 6.94708C19.6031 7.39591 19.8558 8.00426 19.8572 8.639V11.3613C19.856 11.9961 19.6033 12.6046 19.1544 13.0536C18.7056 13.5025 18.0971 13.7554 17.4623 13.7567ZM2.53774 7.67271C2.28156 7.67301 2.03596 7.77492 1.85481 7.95606C1.67366 8.13721 1.57176 8.38282 1.57145 8.639V11.3613C1.57176 11.6175 1.67364 11.8632 1.85477 12.0444C2.0359 12.2257 2.28151 12.3277 2.53774 12.3281H17.4623C17.7185 12.3277 17.9641 12.2257 18.1453 12.0444C18.3264 11.8632 18.4283 11.6175 18.4286 11.3613V8.639C18.4283 8.38282 18.3264 8.13721 18.1452 7.95606C17.9641 7.77492 17.7185 7.67301 17.4623 7.67271H2.53774Z" fill="#868D95"/>
<path d="M4.67083 11.1867C4.48139 11.1867 4.29971 11.1114 4.16575 10.9775C4.0318 10.8435 3.95654 10.6618 3.95654 10.4724V9.32952C3.95654 9.14008 4.0318 8.9584 4.16575 8.82444C4.29971 8.69049 4.48139 8.61523 4.67083 8.61523C4.86027 8.61523 5.04195 8.69049 5.1759 8.82444C5.30986 8.9584 5.38511 9.14008 5.38511 9.32952V10.4724C5.38511 10.6618 5.30986 10.8435 5.1759 10.9775C5.04195 11.1114 4.86027 11.1867 4.67083 11.1867Z" fill="#868D95"/>
<path d="M17.4623 19.8571H2.53774C1.903 19.8557 1.29465 19.603 0.845821 19.1541C0.396993 18.7053 0.144242 18.0969 0.142883 17.4622V14.7393C0.143789 14.1043 0.39634 13.4955 0.845217 13.0463C1.2941 12.5971 1.90271 12.3441 2.53774 12.3428H17.4623C18.097 12.3441 18.7052 12.5968 19.154 13.0455C19.6028 13.4942 19.8557 14.1024 19.8572 14.7371V17.4599C19.8564 18.0951 19.6039 18.704 19.155 19.1533C18.7061 19.6026 18.0974 19.8557 17.4623 19.8571ZM2.53774 13.7713C2.28166 13.7716 2.03614 13.8735 1.85501 14.0545C1.67388 14.2355 1.57191 14.481 1.57145 14.7371V17.4599C1.5713 17.587 1.59618 17.7128 1.64466 17.8302C1.69314 17.9477 1.76427 18.0544 1.854 18.1443C1.94373 18.2343 2.05029 18.3057 2.16761 18.3544C2.28492 18.4032 2.4107 18.4283 2.53774 18.4285H17.4623C17.7185 18.4282 17.9641 18.3263 18.1452 18.1451C18.3264 17.964 18.4283 17.7184 18.4286 17.4622V14.7393C18.4281 14.4833 18.3262 14.2378 18.145 14.0568C17.9639 13.8758 17.7184 13.7739 17.4623 13.7736L2.53774 13.7713Z" fill="#868D95"/>
<path d="M4.67083 17.287C4.57688 17.287 4.48386 17.2685 4.39709 17.2325C4.31032 17.1965 4.2315 17.1437 4.16515 17.0772C4.0988 17.0107 4.04622 16.9317 4.01042 16.8449C3.97463 16.758 3.95632 16.665 3.95655 16.571V15.4282C3.95655 15.2387 4.0318 15.057 4.16575 14.9231C4.29971 14.7891 4.48139 14.7139 4.67083 14.7139C4.86027 14.7139 5.04195 14.7891 5.17591 14.9231C5.30986 15.057 5.38512 15.2387 5.38512 15.4282V16.571C5.38542 16.665 5.36716 16.7581 5.33139 16.845C5.29562 16.9319 5.24305 17.0108 5.17668 17.0774C5.11032 17.1439 5.03147 17.1967 4.94466 17.2326C4.85786 17.2686 4.7648 17.2871 4.67083 17.287Z" fill="#868D95"/>
</g>
<defs>
<clipPath id="clip0_524_4143">
<rect width="20" height="20" fill="white"/>
</clipPath>
</defs>
</svg>
